<svg width="767" height="167" viewBox="0 0 767 167" fill="none" xmlns="http://www.w3.org/2000/svg">
<path fill-rule="evenodd" clip-rule="evenodd" d="M71.2184 0.644129C39.7314 5.28113 13.7364 27.3091 3.34739 58.1571C1.09739 64.8381 0.579389 68.4281 0.173389 80.1421C-0.238611 92.0131 0.00438821 95.4691 1.77139 102.87C5.72339 119.42 13.9894 133.053 27.8584 145.894C33.2874 150.92 37.8184 153.915 46.2334 158.037C65.5884 167.52 31.1524 166.642 383.69 166.642C693.121 166.642 695.646 166.626 703.493 164.626C728.149 158.342 748.474 141.577 759.349 118.553C765.254 106.05 766.409 100.133 766.355 82.6421C766.309 67.9581 766.14 66.6411 763.129 57.6121C754.037 30.3521 732.895 10.4781 704.403 2.40813L696.403 0.14213L386.403 0.0111298C215.903 -0.0608701 74.0704 0.224129 71.2184 0.644129ZM704.85 6.45013C733.684 15.3871 753.848 36.2721 761.019 64.6281C762.852 71.8781 763.073 74.9181 762.616 86.5921C761.932 104.047 759.137 113.235 750.395 126.756C739.683 143.326 722.46 155.652 702.623 160.948L694.403 163.142H383.403H72.4034L64.0584 160.916C31.2254 152.159 8.28439 126.068 3.87439 92.4711C-1.48961 51.5971 28.6254 11.6911 70.0674 4.75813C73.1304 4.24513 207.891 3.92413 386.403 4.00313L697.403 4.14213L704.85 6.45013Z" fill="black"/>
<path d="M84.374 102L75.406 75.4H78.294L86.692 100.442H85.248L93.912 75.4H96.496L105.046 100.442H103.678L112.152 75.4H114.85L105.882 102H102.918L94.748 78.25H95.508L87.3 102H84.374ZM126.768 102.19C124.691 102.19 122.867 101.759 121.296 100.898C119.726 100.011 118.497 98.808 117.61 97.288C116.724 95.7427 116.28 93.982 116.28 92.006C116.28 90.03 116.698 88.282 117.534 86.762C118.396 85.242 119.561 84.0513 121.03 83.19C122.525 82.3033 124.197 81.86 126.046 81.86C127.921 81.86 129.58 82.2907 131.024 83.152C132.494 83.988 133.646 85.1787 134.482 86.724C135.318 88.244 135.736 90.0047 135.736 92.006C135.736 92.1327 135.724 92.272 135.698 92.424C135.698 92.5507 135.698 92.69 135.698 92.842H118.332V90.828H134.254L133.19 91.626C133.19 90.182 132.874 88.9027 132.24 87.788C131.632 86.648 130.796 85.7613 129.732 85.128C128.668 84.4947 127.44 84.178 126.046 84.178C124.678 84.178 123.45 84.4947 122.36 85.128C121.271 85.7613 120.422 86.648 119.814 87.788C119.206 88.928 118.902 90.2327 118.902 91.702V92.12C118.902 93.64 119.232 94.9827 119.89 96.148C120.574 97.288 121.512 98.1873 122.702 98.846C123.918 99.4793 125.299 99.796 126.844 99.796C128.06 99.796 129.188 99.5807 130.226 99.15C131.29 98.7193 132.202 98.0607 132.962 97.174L134.482 98.922C133.596 99.986 132.481 100.797 131.138 101.354C129.821 101.911 128.364 102.19 126.768 102.19ZM164.435 102V97.592L164.321 96.87V89.498C164.321 87.8007 163.84 86.496 162.877 85.584C161.94 84.672 160.534 84.216 158.659 84.216C157.367 84.216 156.139 84.4313 154.973 84.862C153.808 85.2927 152.82 85.8627 152.009 86.572L150.793 84.558C151.807 83.6967 153.023 83.038 154.441 82.582C155.86 82.1007 157.355 81.86 158.925 81.86C161.509 81.86 163.498 82.506 164.891 83.798C166.31 85.0647 167.019 87.0027 167.019 89.612V102H164.435ZM157.557 102.19C156.063 102.19 154.758 101.949 153.643 101.468C152.554 100.961 151.718 100.277 151.135 99.416C150.553 98.5293 150.261 97.516 150.261 96.376C150.261 95.3373 150.502 94.4 150.983 93.564C151.49 92.7027 152.301 92.0187 153.415 91.512C154.555 90.98 156.075 90.714 157.975 90.714H164.853V92.728H158.051C156.126 92.728 154.783 93.07 154.023 93.754C153.289 94.438 152.921 95.2867 152.921 96.3C152.921 97.44 153.365 98.352 154.251 99.036C155.138 99.72 156.379 100.062 157.975 100.062C159.495 100.062 160.8 99.72 161.889 99.036C163.004 98.3267 163.815 97.3133 164.321 95.996L164.929 97.858C164.423 99.1753 163.536 100.227 162.269 101.012C161.028 101.797 159.457 102.19 157.557 102.19ZM174.727 102V82.05H177.311V87.484L177.045 86.534C177.603 85.014 178.54 83.8613 179.857 83.076C181.175 82.2653 182.809 81.86 184.759 81.86V84.482C184.658 84.482 184.557 84.482 184.455 84.482C184.354 84.4567 184.253 84.444 184.151 84.444C182.049 84.444 180.402 85.09 179.211 86.382C178.021 87.6487 177.425 89.46 177.425 91.816V102H174.727ZM198.351 102.19C196.274 102.19 194.45 101.759 192.879 100.898C191.308 100.011 190.08 98.808 189.193 97.288C188.306 95.7427 187.863 93.982 187.863 92.006C187.863 90.03 188.281 88.282 189.117 86.762C189.978 85.242 191.144 84.0513 192.613 83.19C194.108 82.3033 195.78 81.86 197.629 81.86C199.504 81.86 201.163 82.2907 202.607 83.152C204.076 83.988 205.229 85.1787 206.065 86.724C206.901 88.244 207.319 90.0047 207.319 92.006C207.319 92.1327 207.306 92.272 207.281 92.424C207.281 92.5507 207.281 92.69 207.281 92.842H189.915V90.828H205.837L204.773 91.626C204.773 90.182 204.456 88.9027 203.823 87.788C203.215 86.648 202.379 85.7613 201.315 85.128C200.251 84.4947 199.022 84.178 197.629 84.178C196.261 84.178 195.032 84.4947 193.943 85.128C192.854 85.7613 192.005 86.648 191.397 87.788C190.789 88.928 190.485 90.2327 190.485 91.702V92.12C190.485 93.64 190.814 94.9827 191.473 96.148C192.157 97.288 193.094 98.1873 194.285 98.846C195.501 99.4793 196.882 99.796 198.427 99.796C199.643 99.796 200.77 99.5807 201.809 99.15C202.873 98.7193 203.785 98.0607 204.545 97.174L206.065 98.922C205.178 99.986 204.064 100.797 202.721 101.354C201.404 101.911 199.947 102.19 198.351 102.19ZM233.814 102.19C232.091 102.19 230.533 101.797 229.14 101.012C227.746 100.201 226.632 99.0487 225.796 97.554C224.985 96.034 224.58 94.1847 224.58 92.006C224.58 89.8273 224.985 87.9907 225.796 86.496C226.606 84.976 227.708 83.8233 229.102 83.038C230.495 82.2527 232.066 81.86 233.814 81.86C235.714 81.86 237.411 82.2907 238.906 83.152C240.426 83.988 241.616 85.1787 242.478 86.724C243.339 88.244 243.77 90.0047 243.77 92.006C243.77 94.0327 243.339 95.806 242.478 97.326C241.616 98.846 240.426 100.037 238.906 100.898C237.411 101.759 235.714 102.19 233.814 102.19ZM223.516 109.372V82.05H226.1V88.054L225.834 92.044L226.214 96.072V109.372H223.516ZM233.624 99.796C235.042 99.796 236.309 99.4793 237.424 98.846C238.538 98.1873 239.425 97.2753 240.084 96.11C240.742 94.9193 241.072 93.5513 241.072 92.006C241.072 90.4607 240.742 89.1053 240.084 87.94C239.425 86.7747 238.538 85.8627 237.424 85.204C236.309 84.5453 235.042 84.216 233.624 84.216C232.205 84.216 230.926 84.5453 229.786 85.204C228.671 85.8627 227.784 86.7747 227.126 87.94C226.492 89.1053 226.176 90.4607 226.176 92.006C226.176 93.5513 226.492 94.9193 227.126 96.11C227.784 97.2753 228.671 98.1873 229.786 98.846C230.926 99.4793 232.205 99.796 233.624 99.796ZM262.04 102V97.592L261.926 96.87V89.498C261.926 87.8007 261.445 86.496 260.482 85.584C259.545 84.672 258.139 84.216 256.264 84.216C254.972 84.216 253.744 84.4313 252.578 84.862C251.413 85.2927 250.425 85.8627 249.614 86.572L248.398 84.558C249.412 83.6967 250.628 83.038 252.046 82.582C253.465 82.1007 254.96 81.86 256.53 81.86C259.114 81.86 261.103 82.506 262.496 83.798C263.915 85.0647 264.624 87.0027 264.624 89.612V102H262.04ZM255.162 102.19C253.668 102.19 252.363 101.949 251.248 101.468C250.159 100.961 249.323 100.277 248.74 99.416C248.158 98.5293 247.866 97.516 247.866 96.376C247.866 95.3373 248.107 94.4 248.588 93.564C249.095 92.7027 249.906 92.0187 251.02 91.512C252.16 90.98 253.68 90.714 255.58 90.714H262.458V92.728H255.656C253.731 92.728 252.388 93.07 251.628 93.754C250.894 94.438 250.526 95.2867 250.526 96.3C250.526 97.44 250.97 98.352 251.856 99.036C252.743 99.72 253.984 100.062 255.58 100.062C257.1 100.062 258.405 99.72 259.494 99.036C260.609 98.3267 261.42 97.3133 261.926 95.996L262.534 97.858C262.028 99.1753 261.141 100.227 259.874 101.012C258.633 101.797 257.062 102.19 255.162 102.19ZM272.332 102V82.05H274.916V87.484L274.65 86.534C275.208 85.014 276.145 83.8613 277.462 83.076C278.78 82.2653 280.414 81.86 282.364 81.86V84.482C282.263 84.482 282.162 84.482 282.06 84.482C281.959 84.4567 281.858 84.444 281.756 84.444C279.654 84.444 278.007 85.09 276.816 86.382C275.626 87.6487 275.03 89.46 275.03 91.816V102H272.332ZM294.829 102.19C292.954 102.19 291.51 101.683 290.497 100.67C289.484 99.6567 288.977 98.2253 288.977 96.376V77.642H291.675V96.224C291.675 97.3893 291.966 98.2887 292.549 98.922C293.157 99.5553 294.018 99.872 295.133 99.872C296.324 99.872 297.312 99.53 298.097 98.846L299.047 100.784C298.515 101.265 297.869 101.62 297.109 101.848C296.374 102.076 295.614 102.19 294.829 102.19ZM285.405 84.292V82.05H297.755V84.292H285.405ZM322.796 102.19C320.87 102.19 319.135 101.759 317.59 100.898C316.07 100.011 314.866 98.808 313.98 97.288C313.093 95.7427 312.65 93.982 312.65 92.006C312.65 90.0047 313.093 88.244 313.98 86.724C314.866 85.204 316.07 84.0133 317.59 83.152C319.11 82.2907 320.845 81.86 322.796 81.86C324.772 81.86 326.52 82.2907 328.04 83.152C329.585 84.0133 330.788 85.204 331.65 86.724C332.536 88.244 332.98 90.0047 332.98 92.006C332.98 93.982 332.536 95.7427 331.65 97.288C330.788 98.808 329.585 100.011 328.04 100.898C326.494 101.759 324.746 102.19 322.796 102.19ZM322.796 99.796C324.24 99.796 325.519 99.4793 326.634 98.846C327.748 98.1873 328.622 97.2753 329.256 96.11C329.914 94.9193 330.244 93.5513 330.244 92.006C330.244 90.4353 329.914 89.0673 329.256 87.902C328.622 86.7367 327.748 85.8373 326.634 85.204C325.519 84.5453 324.252 84.216 322.834 84.216C321.415 84.216 320.148 84.5453 319.034 85.204C317.919 85.8373 317.032 86.7367 316.374 87.902C315.715 89.0673 315.386 90.4353 315.386 92.006C315.386 93.5513 315.715 94.9193 316.374 96.11C317.032 97.2753 317.919 98.1873 319.034 98.846C320.148 99.4793 321.402 99.796 322.796 99.796ZM339.324 102V79.542C339.324 77.7687 339.843 76.3373 340.882 75.248C341.921 74.1587 343.415 73.614 345.366 73.614C346.126 73.614 346.861 73.7153 347.57 73.918C348.279 74.1207 348.875 74.4373 349.356 74.868L348.444 76.882C348.064 76.5527 347.621 76.312 347.114 76.16C346.607 75.9827 346.063 75.894 345.48 75.894C344.34 75.894 343.466 76.2107 342.858 76.844C342.25 77.4773 341.946 78.4147 341.946 79.656V82.696L342.022 83.95V102H339.324ZM335.752 84.292V82.05H348.102V84.292H335.752Z" fill="black"/>
<path d="M528.946 79.86C530.567 79.86 531.986 80.1767 533.202 80.81C534.443 81.418 535.406 82.3553 536.09 83.622C536.799 84.8887 537.154 86.4847 537.154 88.41V100H534.456V88.676C534.456 86.5733 533.924 84.99 532.86 83.926C531.821 82.8367 530.352 82.292 528.452 82.292C527.033 82.292 525.792 82.5833 524.728 83.166C523.689 83.7233 522.879 84.5467 522.296 85.636C521.739 86.7 521.46 87.992 521.46 89.512V100H518.762V80.05H521.346V85.522L520.928 84.496C521.561 83.052 522.575 81.9247 523.968 81.114C525.361 80.278 527.021 79.86 528.946 79.86ZM553.296 100.19C551.218 100.19 549.394 99.7593 547.824 98.898C546.253 98.0113 545.024 96.808 544.138 95.288C543.251 93.7427 542.808 91.982 542.808 90.006C542.808 88.03 543.226 86.282 544.062 84.762C544.923 83.242 546.088 82.0513 547.558 81.19C549.052 80.3033 550.724 79.86 552.574 79.86C554.448 79.86 556.108 80.2907 557.552 81.152C559.021 81.988 560.174 83.1787 561.01 84.724C561.846 86.244 562.264 88.0047 562.264 90.006C562.264 90.1327 562.251 90.272 562.226 90.424C562.226 90.5507 562.226 90.69 562.226 90.842H544.86V88.828H560.782L559.718 89.626C559.718 88.182 559.401 86.9027 558.768 85.788C558.16 84.648 557.324 83.7613 556.26 83.128C555.196 82.4947 553.967 82.178 552.574 82.178C551.206 82.178 549.977 82.4947 548.888 83.128C547.798 83.7613 546.95 84.648 546.342 85.788C545.734 86.928 545.43 88.2327 545.43 89.702V90.12C545.43 91.64 545.759 92.9827 546.418 94.148C547.102 95.288 548.039 96.1873 549.23 96.846C550.446 97.4793 551.826 97.796 553.372 97.796C554.588 97.796 555.715 97.5807 556.754 97.15C557.818 96.7193 558.73 96.0607 559.49 95.174L561.01 96.922C560.123 97.986 559.008 98.7967 557.666 99.354C556.348 99.9113 554.892 100.19 553.296 100.19ZM574.443 100.19C572.569 100.19 571.125 99.6833 570.111 98.67C569.098 97.6567 568.591 96.2253 568.591 94.376V75.642H571.289V94.224C571.289 95.3893 571.581 96.2887 572.163 96.922C572.771 97.5553 573.633 97.872 574.747 97.872C575.938 97.872 576.926 97.53 577.711 96.846L578.661 98.784C578.129 99.2653 577.483 99.62 576.723 99.848C575.989 100.076 575.229 100.19 574.443 100.19ZM565.019 82.292V80.05H577.369V82.292H565.019ZM587.648 100L580.124 80.05H582.708L589.548 98.556H588.37L595.4 80.05H597.718L604.672 98.556H603.494L610.448 80.05H612.918L605.356 100H602.81L596.122 82.596H596.92L590.194 100H587.648ZM624.935 100.19C623.01 100.19 621.275 99.7593 619.729 98.898C618.209 98.0113 617.006 96.808 616.119 95.288C615.233 93.7427 614.789 91.982 614.789 90.006C614.789 88.0047 615.233 86.244 616.119 84.724C617.006 83.204 618.209 82.0133 619.729 81.152C621.249 80.2907 622.985 79.86 624.935 79.86C626.911 79.86 628.659 80.2907 630.179 81.152C631.725 82.0133 632.928 83.204 633.789 84.724C634.676 86.244 635.119 88.0047 635.119 90.006C635.119 91.982 634.676 93.7427 633.789 95.288C632.928 96.808 631.725 98.0113 630.179 98.898C628.634 99.7593 626.886 100.19 624.935 100.19ZM624.935 97.796C626.379 97.796 627.659 97.4793 628.773 96.846C629.888 96.1873 630.762 95.2753 631.395 94.11C632.054 92.9193 632.383 91.5513 632.383 90.006C632.383 88.4353 632.054 87.0673 631.395 85.902C630.762 84.7367 629.888 83.8373 628.773 83.204C627.659 82.5453 626.392 82.216 624.973 82.216C623.555 82.216 622.288 82.5453 621.173 83.204C620.059 83.8373 619.172 84.7367 618.513 85.902C617.855 87.0673 617.525 88.4353 617.525 90.006C617.525 91.5513 617.855 92.9193 618.513 94.11C619.172 95.2753 620.059 96.1873 621.173 96.846C622.288 97.4793 623.542 97.796 624.935 97.796ZM641.008 100V80.05H643.592V85.484L643.326 84.534C643.883 83.014 644.82 81.8613 646.138 81.076C647.455 80.2653 649.089 79.86 651.04 79.86V82.482C650.938 82.482 650.837 82.482 650.736 82.482C650.634 82.4567 650.533 82.444 650.432 82.444C648.329 82.444 646.682 83.09 645.492 84.382C644.301 85.6487 643.706 87.46 643.706 89.816V100H641.008ZM658.471 94.832L658.547 91.374L670.973 80.05H674.279L665.501 88.448L663.981 89.74L658.471 94.832ZM656.343 100V71.804H659.041V100H656.343ZM671.809 100L663.487 89.626L665.235 87.536L675.115 100H671.809Z" fill="black"/>
<path d="M381.504 81.8722V103H371.368V66.4545H381.028V72.9023H381.456C382.265 70.7769 383.621 69.0955 385.525 67.8583C387.428 66.6052 389.736 65.9787 392.448 65.9787C394.986 65.9787 397.199 66.5339 399.086 67.6442C400.974 68.7545 402.441 70.3407 403.488 72.4027C404.535 74.4489 405.058 76.8916 405.058 79.7308V103H394.923V81.5391C394.939 79.3026 394.368 77.5578 393.21 76.3047C392.052 75.0357 390.458 74.4013 388.427 74.4013C387.063 74.4013 385.858 74.6947 384.811 75.2816C383.78 75.8685 382.971 76.725 382.384 77.8512C381.813 78.9615 381.52 80.3018 381.504 81.8722ZM434.479 103.666C430.815 103.666 427.556 103.071 424.7 101.882C421.861 100.676 419.633 99.0346 418.015 96.9567C416.397 94.8788 415.588 92.5233 415.588 89.8903C415.588 87.86 416.048 85.9962 416.968 84.299C417.904 82.5859 419.173 81.1663 420.775 80.0401C422.377 78.8981 424.169 78.1684 426.152 77.8512V77.5181C423.55 76.9947 421.441 75.7337 419.823 73.7351C418.205 71.7206 417.396 69.381 417.396 66.7163C417.396 64.1942 418.134 61.9498 419.609 59.983C421.084 58.0002 423.106 56.4458 425.676 55.3196C428.261 54.1776 431.196 53.6065 434.479 53.6065C437.763 53.6065 440.689 54.1776 443.259 55.3196C445.844 56.4616 447.874 58.024 449.35 60.0067C450.825 61.9736 451.57 64.2101 451.586 66.7163C451.57 69.3969 450.745 71.7365 449.112 73.7351C447.478 75.7337 445.384 76.9947 442.83 77.5181V77.8512C444.781 78.1684 446.55 78.8981 448.136 80.0401C449.738 81.1663 451.007 82.5859 451.943 84.299C452.895 85.9962 453.378 87.86 453.394 89.8903C453.378 92.5233 452.562 94.8788 450.944 96.9567C449.326 99.0346 447.089 100.676 444.234 101.882C441.395 103.071 438.143 103.666 434.479 103.666ZM434.479 96.1001C436.113 96.1001 437.54 95.8067 438.762 95.2198C439.983 94.6171 440.935 93.7923 441.617 92.7454C442.315 91.6826 442.664 90.4613 442.664 89.0813C442.664 87.6696 442.307 86.4245 441.593 85.3459C440.879 84.2514 439.912 83.3949 438.69 82.7763C437.469 82.1418 436.065 81.8246 434.479 81.8246C432.909 81.8246 431.505 82.1418 430.268 82.7763C429.031 83.3949 428.055 84.2514 427.341 85.3459C426.643 86.4245 426.295 87.6696 426.295 89.0813C426.295 90.4613 426.636 91.6826 427.318 92.7454C428 93.7923 428.959 94.6171 430.197 95.2198C431.434 95.8067 432.861 96.1001 434.479 96.1001ZM434.479 74.3299C435.843 74.3299 437.057 74.0523 438.119 73.4972C439.182 72.942 440.015 72.1727 440.618 71.1893C441.22 70.2058 441.522 69.0717 441.522 67.7869C441.522 66.518 441.22 65.4077 440.618 64.456C440.015 63.4884 439.19 62.735 438.143 62.1957C437.096 61.6405 435.875 61.3629 434.479 61.3629C433.099 61.3629 431.878 61.6405 430.815 62.1957C429.752 62.735 428.92 63.4884 428.317 64.456C427.73 65.4077 427.437 66.518 427.437 67.7869C427.437 69.0717 427.738 70.2058 428.341 71.1893C428.943 72.1727 429.776 72.942 430.839 73.4972C431.902 74.0523 433.115 74.3299 434.479 74.3299ZM474.178 81.8722V103H464.043V66.4545H473.702V72.9023H474.131C474.94 70.7769 476.296 69.0955 478.199 67.8583C480.103 66.6052 482.411 65.9787 485.123 65.9787C487.661 65.9787 489.874 66.5339 491.761 67.6442C493.649 68.7545 495.116 70.3407 496.163 72.4027C497.21 74.4489 497.733 76.8916 497.733 79.7308V103H487.597V81.5391C487.613 79.3026 487.042 77.5578 485.884 76.3047C484.726 75.0357 483.132 74.4013 481.102 74.4013C479.738 74.4013 478.532 74.6947 477.486 75.2816C476.455 75.8685 475.646 76.725 475.059 77.8512C474.488 78.9615 474.194 80.3018 474.178 81.8722Z" fill="black"/>
<path d="M379.404 125H373.474V108.273H379.453C381.135 108.273 382.583 108.608 383.798 109.277C385.012 109.942 385.946 110.897 386.599 112.144C387.258 113.391 387.587 114.883 387.587 116.62C387.587 118.362 387.258 119.86 386.599 121.112C385.946 122.365 385.007 123.326 383.781 123.995C382.562 124.665 381.102 125 379.404 125ZM377.01 121.97H379.257C380.302 121.97 381.181 121.785 381.895 121.414C382.613 121.039 383.152 120.459 383.512 119.675C383.877 118.885 384.059 117.867 384.059 116.62C384.059 115.384 383.877 114.374 383.512 113.59C383.152 112.806 382.616 112.229 381.903 111.858C381.19 111.488 380.31 111.303 379.265 111.303H377.01V121.97ZM395.859 125.245C394.569 125.245 393.458 124.984 392.527 124.461C391.601 123.933 390.888 123.187 390.387 122.223C389.886 121.254 389.636 120.108 389.636 118.784C389.636 117.494 389.886 116.361 390.387 115.387C390.888 114.412 391.593 113.652 392.502 113.108C393.417 112.563 394.49 112.291 395.72 112.291C396.548 112.291 397.319 112.425 398.032 112.691C398.751 112.953 399.377 113.348 399.91 113.876C400.449 114.404 400.869 115.068 401.168 115.869C401.468 116.664 401.617 117.595 401.617 118.662V119.618H391.024V117.461H398.342C398.342 116.96 398.233 116.517 398.015 116.13C397.798 115.743 397.495 115.441 397.109 115.223C396.728 115 396.284 114.888 395.778 114.888C395.249 114.888 394.781 115.011 394.373 115.256C393.97 115.496 393.654 115.82 393.425 116.228C393.197 116.631 393.08 117.08 393.074 117.576V119.626C393.074 120.246 393.188 120.783 393.417 121.235C393.651 121.687 393.981 122.035 394.405 122.28C394.83 122.525 395.334 122.648 395.916 122.648C396.303 122.648 396.657 122.593 396.978 122.484C397.299 122.375 397.574 122.212 397.803 121.994C398.032 121.777 398.206 121.51 398.326 121.194L401.544 121.406C401.381 122.179 401.046 122.855 400.539 123.432C400.038 124.004 399.39 124.45 398.595 124.771C397.806 125.087 396.894 125.245 395.859 125.245ZM415.247 112.455L410.861 125H406.941L402.555 112.455H406.23L408.836 121.431H408.966L411.564 112.455H415.247ZM422.341 125.245C421.05 125.245 419.939 124.984 419.008 124.461C418.083 123.933 417.369 123.187 416.868 122.223C416.367 121.254 416.117 120.108 416.117 118.784C416.117 117.494 416.367 116.361 416.868 115.387C417.369 114.412 418.074 113.652 418.984 113.108C419.899 112.563 420.971 112.291 422.202 112.291C423.029 112.291 423.8 112.425 424.513 112.691C425.232 112.953 425.858 113.348 426.392 113.876C426.931 114.404 427.35 115.068 427.65 115.869C427.949 116.664 428.099 117.595 428.099 118.662V119.618H417.505V117.461H424.824C424.824 116.96 424.715 116.517 424.497 116.13C424.279 115.743 423.977 115.441 423.59 115.223C423.209 115 422.765 114.888 422.259 114.888C421.731 114.888 421.263 115.011 420.854 115.256C420.451 115.496 420.135 115.82 419.907 116.228C419.678 116.631 419.561 117.08 419.556 117.576V119.626C419.556 120.246 419.67 120.783 419.899 121.235C420.133 121.687 420.462 122.035 420.887 122.28C421.312 122.525 421.815 122.648 422.398 122.648C422.784 122.648 423.138 122.593 423.46 122.484C423.781 122.375 424.056 122.212 424.285 121.994C424.513 121.777 424.688 121.51 424.807 121.194L428.025 121.406C427.862 122.179 427.527 122.855 427.021 123.432C426.52 124.004 425.872 124.45 425.077 124.771C424.287 125.087 423.375 125.245 422.341 125.245ZM433.849 108.273V125H430.369V108.273H433.849ZM442.304 125.245C441.036 125.245 439.938 124.975 439.013 124.436C438.093 123.892 437.382 123.135 436.881 122.166C436.38 121.191 436.13 120.061 436.13 118.776C436.13 117.48 436.38 116.348 436.881 115.379C437.382 114.404 438.093 113.647 439.013 113.108C439.938 112.563 441.036 112.291 442.304 112.291C443.573 112.291 444.668 112.563 445.588 113.108C446.513 113.647 447.227 114.404 447.728 115.379C448.229 116.348 448.479 117.48 448.479 118.776C448.479 120.061 448.229 121.191 447.728 122.166C447.227 123.135 446.513 123.892 445.588 124.436C444.668 124.975 443.573 125.245 442.304 125.245ZM442.321 122.55C442.898 122.55 443.38 122.386 443.766 122.06C444.153 121.728 444.444 121.276 444.64 120.704C444.842 120.132 444.943 119.481 444.943 118.752C444.943 118.022 444.842 117.371 444.64 116.8C444.444 116.228 444.153 115.776 443.766 115.444C443.38 115.112 442.898 114.946 442.321 114.946C441.738 114.946 441.248 115.112 440.851 115.444C440.458 115.776 440.162 116.228 439.96 116.8C439.764 117.371 439.666 118.022 439.666 118.752C439.666 119.481 439.764 120.132 439.96 120.704C440.162 121.276 440.458 121.728 440.851 122.06C441.248 122.386 441.738 122.55 442.321 122.55ZM450.742 129.705V112.455H454.172V114.562H454.327C454.48 114.224 454.7 113.881 454.989 113.533C455.283 113.179 455.664 112.885 456.132 112.651C456.606 112.411 457.194 112.291 457.896 112.291C458.811 112.291 459.655 112.531 460.428 113.01C461.202 113.484 461.82 114.2 462.282 115.158C462.745 116.111 462.977 117.306 462.977 118.744C462.977 120.143 462.751 121.325 462.299 122.288C461.852 123.247 461.242 123.974 460.469 124.469C459.701 124.959 458.841 125.204 457.888 125.204C457.213 125.204 456.639 125.093 456.165 124.869C455.697 124.646 455.313 124.366 455.013 124.028C454.714 123.685 454.485 123.339 454.327 122.991H454.221V129.705H450.742ZM454.147 118.727C454.147 119.473 454.251 120.124 454.458 120.679C454.665 121.235 454.964 121.668 455.356 121.978C455.748 122.283 456.225 122.435 456.786 122.435C457.352 122.435 457.831 122.28 458.223 121.97C458.615 121.654 458.912 121.218 459.113 120.663C459.32 120.102 459.424 119.457 459.424 118.727C459.424 118.003 459.323 117.366 459.121 116.816C458.92 116.266 458.623 115.836 458.231 115.526C457.839 115.215 457.357 115.06 456.786 115.06C456.219 115.06 455.74 115.21 455.348 115.509C454.961 115.809 454.665 116.233 454.458 116.783C454.251 117.333 454.147 117.981 454.147 118.727ZM471.014 125.245C469.723 125.245 468.612 124.984 467.681 124.461C466.755 123.933 466.042 123.187 465.541 122.223C465.04 121.254 464.79 120.108 464.79 118.784C464.79 117.494 465.04 116.361 465.541 115.387C466.042 114.412 466.747 113.652 467.657 113.108C468.571 112.563 469.644 112.291 470.875 112.291C471.702 112.291 472.473 112.425 473.186 112.691C473.905 112.953 474.531 113.348 475.065 113.876C475.604 114.404 476.023 115.068 476.322 115.869C476.622 116.664 476.772 117.595 476.772 118.662V119.618H466.178V117.461H473.496C473.496 116.96 473.388 116.517 473.17 116.13C472.952 115.743 472.65 115.441 472.263 115.223C471.882 115 471.438 114.888 470.932 114.888C470.404 114.888 469.935 115.011 469.527 115.256C469.124 115.496 468.808 115.82 468.58 116.228C468.351 116.631 468.234 117.08 468.228 117.576V119.626C468.228 120.246 468.343 120.783 468.571 121.235C468.806 121.687 469.135 122.035 469.56 122.28C469.984 122.525 470.488 122.648 471.071 122.648C471.457 122.648 471.811 122.593 472.133 122.484C472.454 122.375 472.729 122.212 472.957 121.994C473.186 121.777 473.36 121.51 473.48 121.194L476.698 121.406C476.535 122.179 476.2 122.855 475.694 123.432C475.193 124.004 474.545 124.45 473.75 124.771C472.96 125.087 472.048 125.245 471.014 125.245ZM479.042 125V112.455H482.416V114.643H482.546C482.775 113.865 483.159 113.277 483.698 112.879C484.237 112.476 484.858 112.275 485.56 112.275C485.734 112.275 485.922 112.286 486.124 112.308C486.325 112.329 486.502 112.359 486.655 112.397V115.485C486.491 115.436 486.265 115.392 485.977 115.354C485.688 115.316 485.424 115.297 485.184 115.297C484.673 115.297 484.215 115.408 483.812 115.632C483.415 115.85 483.099 116.154 482.865 116.547C482.636 116.939 482.522 117.391 482.522 117.902V125H479.042ZM498.892 116.032L495.706 116.228C495.652 115.956 495.535 115.711 495.355 115.493C495.175 115.27 494.939 115.093 494.644 114.962C494.356 114.826 494.01 114.758 493.607 114.758C493.068 114.758 492.613 114.872 492.243 115.101C491.873 115.324 491.688 115.624 491.688 115.999C491.688 116.299 491.808 116.552 492.047 116.759C492.287 116.966 492.698 117.132 493.28 117.257L495.551 117.714C496.771 117.965 497.68 118.368 498.279 118.923C498.878 119.479 499.178 120.208 499.178 121.112C499.178 121.934 498.935 122.656 498.451 123.277C497.971 123.897 497.313 124.382 496.474 124.73C495.641 125.074 494.68 125.245 493.591 125.245C491.93 125.245 490.607 124.899 489.621 124.208C488.641 123.511 488.067 122.563 487.898 121.365L491.32 121.186C491.424 121.692 491.674 122.079 492.072 122.346C492.469 122.607 492.978 122.738 493.599 122.738C494.209 122.738 494.699 122.621 495.069 122.386C495.445 122.147 495.635 121.839 495.641 121.463C495.635 121.148 495.502 120.889 495.241 120.688C494.979 120.481 494.576 120.323 494.032 120.214L491.859 119.781C490.634 119.536 489.722 119.111 489.123 118.507C488.53 117.902 488.233 117.132 488.233 116.195C488.233 115.389 488.451 114.695 488.886 114.113C489.327 113.53 489.945 113.081 490.74 112.765C491.541 112.449 492.477 112.291 493.55 112.291C495.135 112.291 496.381 112.626 497.291 113.296C498.206 113.966 498.739 114.878 498.892 116.032Z" fill="#CC5472"/>
</svg>
